<svg width="500" height="500" viewBox="0 0 500 500" fill="none" xmlns="http://www.w3.org/2000/svg">
<rect width="500" height="500" fill="black"/>
<path d="M369.767 33.0005L377.62 39.9139L376.57 109.232L334.428 180.185L383.087 174.908L384 248.956L142.337 466V383.222L200.109 286.251L115.181 299.897L115 249.864C115 249.864 369.767 32.6366 369.767 33.0005ZM368.773 197.756C368.811 197.831 156.769 389.419 156.769 389.419L156.906 433.811L369.228 242.965L368.773 197.756ZM231.966 236.919L136.785 251.427L129.997 257.159C129.997 257.159 129.953 283.447 129.907 283.447L211.645 270.078L231.966 236.919ZM363.043 68.4991C363.043 68.4991 287.501 189.259 287.411 189.168L314.337 185.847L362.632 105.069L363.043 68.4991Z" fill="#FD5750"/>
</svg>
