<svg width="269" height="433" viewBox="0 0 269 433" fill="none" xmlns="http://www.w3.org/2000/svg">
<path d="M254.767 0.000456607L262.62 6.91389L261.57 76.2317L219.428 147.185L268.087 141.908L269 215.956L27.3374 433V350.222L85.109 253.251L0.180791 266.897L0 216.864C0 216.864 254.767 -0.363409 254.767 0.000456607ZM253.773 164.756C253.811 164.831 41.7686 356.419 41.7686 356.419L41.9057 400.811L254.228 209.965L253.773 164.756ZM116.966 203.919L21.7854 218.427L14.9969 224.159C14.9969 224.159 14.9532 250.447 14.9065 250.447L96.6446 237.077L116.966 203.919ZM248.043 35.4991C248.043 35.4991 172.501 156.259 172.411 156.168L199.337 152.847L247.632 72.069L248.043 35.4991Z" fill="#FD5750"/>
</svg>
